HIERARCHY
ROOT Hips
{
	OFFSET 0.000000 88.474243 0.000000
	CHANNELS 6 Xposition Yposition Zposition Zrotation Yrotation Xrotation 
	JOINT Hips_Spine
	{
		OFFSET 0.000000 0.000000 0.000000
		CHANNELS 3 Zrotation Yrotation Xrotation
		JOINT Spine
		{
			OFFSET 0.005100 8.711998 -0.691000
			CHANNELS 3 Zrotation Yrotation Xrotation
			JOINT Spine1
			{
				OFFSET -0.009200 8.660301 -1.275000
				CHANNELS 3 Zrotation Yrotation Xrotation
				JOINT Spine2
				{
					OFFSET 0.006300 9.852501 -1.857000
					CHANNELS 3 Zrotation Yrotation Xrotation
					JOINT Spine2_Neck
					{
						OFFSET 0.000000 0.000000 0.000000
						CHANNELS 3 Zrotation Yrotation Xrotation
						JOINT Neck
						{
							OFFSET 0.016300 11.420799 -0.263300
							CHANNELS 3 Zrotation Yrotation Xrotation
							End Site #name: Head
							{
								OFFSET -0.019200 9.262405 2.362500
							}
						}
					}
					JOINT Spine2_LeftShoulder
					{
						OFFSET 0.000000 0.000000 0.000000
						CHANNELS 3 Zrotation Yrotation Xrotation
						JOINT LeftShoulder
						{
							OFFSET 5.616900 6.732201 -0.345700
							CHANNELS 3 Zrotation Yrotation Xrotation
							JOINT LeftArm
							{
								OFFSET 10.664888 -0.183372 -2.440700
								CHANNELS 3 Zrotation Yrotation Xrotation
								JOINT LeftForeArm
								{
									OFFSET 27.459126 0.000000 0.000000
									CHANNELS 3 Zrotation Yrotation Xrotation
									End Site #name: LeftHand
									{
										OFFSET 21.306858 0.000000 0.000000
									}
								}
							}
						}
					}
					JOINT Spine2_RightShoulder
					{
						OFFSET 0.000000 0.000000 0.000000
						CHANNELS 3 Zrotation Yrotation Xrotation
						JOINT RightShoulder
						{
							OFFSET -5.580300 6.737503 -0.344400
							CHANNELS 3 Zrotation Yrotation Xrotation
							JOINT RightArm
							{
								OFFSET -10.679335 -0.188484 -2.383900
								CHANNELS 3 Zrotation Yrotation Xrotation
								JOINT RightForeArm
								{
									OFFSET -27.503529 0.000000 0.000000
									CHANNELS 3 Zrotation Yrotation Xrotation
									End Site #name: RightHand
									{
										OFFSET -21.306808 0.000000 0.000000
									}
								}
							}
						}
					}
				}
			}
		}
	}
	JOINT Hips_LeftUpLeg
	{
		OFFSET 0.000000 0.000000 0.000000
		CHANNELS 3 Zrotation Yrotation Xrotation
		JOINT LeftUpLeg
		{
			OFFSET 6.857700 -6.739601 0.312100
			CHANNELS 3 Zrotation Yrotation Xrotation
			JOINT LeftLeg
			{
				OFFSET -0.367590 -34.731552 -4.572400
				CHANNELS 3 Zrotation Yrotation Xrotation
				End Site #name: LeftFoot
				{
					OFFSET 0.367590 -34.656704 -6.067400
				}
			}
		}
	}
	JOINT Hips_RightUpLeg
	{
		OFFSET 0.000000 0.000000 0.000000
		CHANNELS 3 Zrotation Yrotation Xrotation
		JOINT RightUpLeg
		{
			OFFSET -6.876100 -6.733299 0.301000
			CHANNELS 3 Zrotation Yrotation Xrotation
			JOINT RightLeg
			{
				OFFSET 0.347353 -34.795158 -4.515900
				CHANNELS 3 Zrotation Yrotation Xrotation
				End Site #name: RightFoot
				{
					OFFSET -0.347353 -34.589367 -6.070300
				}
			}
		}
	}
}
MOTION
Frames: 15
Frame Time: 0.041667
-5.606250 -10.376520 103.281466 -179.037371 -1.724017 -165.316443 0.000000 -0.000000 0.000000 0.436552 -2.294383 4.603046 -0.425085 -5.407633 7.035125 0.000000 0.000000 0.000000 -0.714653 -4.573269 7.753587 6.252838 -2.403056 3.255185 -1.239515 -4.526516 7.132034 -12.342913 -6.193308 7.311115 -44.532989 -36.063925 35.793066 0.131222 -67.932414 0.025944 -0.988255 -4.823555 7.366041 2.570212 3.845204 1.506691 64.674002 6.548398 33.696846 0.211029 52.769769 0.161255 0.000000 -0.000000 -0.000000 2.250041 17.769592 -35.097876 2.254422 4.751425 36.735250 -0.000000 0.000000 -0.000000 -14.215003 -23.198988 -37.601386 -1.150507 0.437011 21.064092 
-3.538858 -10.746151 103.738306 179.102585 -7.840770 -164.681671 0.000000 -0.000000 0.000000 0.020475 -1.847211 4.703577 -1.113415 -4.573181 7.050327 0.000000 0.000000 0.000000 -1.320347 -3.756748 7.965994 5.674099 -4.035262 2.527766 -1.881356 -3.765056 7.251929 -10.934449 -5.353874 6.679886 -42.702907 -30.620029 35.963398 0.058148 -65.654989 0.078168 -1.653738 -3.950887 7.489477 2.456997 6.370569 2.149522 64.347868 8.024049 35.670302 0.218263 56.094505 0.184454 0.000000 -0.000000 -0.000000 2.188500 17.826830 -37.851657 2.317080 4.678335 38.948588 -0.000000 0.000000 -0.000000 -16.322447 -24.133982 -33.973867 -1.375423 1.147367 20.386250 
-1.687734 -11.079015 104.125016 177.714009 -12.325129 -164.169141 0.000000 -0.000000 0.000000 -0.213822 -1.346654 4.695475 -1.767629 -3.600056 7.228547 0.000000 0.000000 0.000000 -1.874756 -2.830203 8.302598 5.651330 -5.572309 2.032709 -2.486052 -2.998404 7.505112 -9.277654 -5.032905 5.879542 -39.565463 -25.474508 33.039822 0.037969 -62.734134 0.109512 -2.324066 -2.945910 7.755597 2.911559 9.114077 2.865847 63.233806 10.070012 36.762691 0.243850 60.018633 0.220089 0.000000 -0.000000 -0.000000 2.251996 17.747739 -40.402285 2.286102 4.602820 41.061566 -0.000000 0.000000 -0.000000 -17.248209 -24.460905 -32.689430 -1.879929 0.976931 22.666394 
-0.056171 -11.408994 104.465171 176.794160 -15.563857 -163.839046 0.000000 -0.000000 0.000000 -0.364447 -0.815101 4.604165 -2.313785 -2.660386 7.424345 0.000000 0.000000 0.000000 -2.342546 -1.920523 8.669377 5.584919 -6.837993 1.798180 -3.024175 -2.302993 7.784143 -7.996383 -5.206712 5.071304 -36.254281 -19.304128 27.729518 0.008682 -59.821428 0.153036 -2.893089 -2.148241 7.978330 3.905888 11.392889 3.626409 60.744898 12.000437 37.195535 0.294374 64.590567 0.276449 0.000000 -0.000000 -0.000000 2.320846 17.907387 -42.746565 2.232436 4.508833 43.058447 -0.000000 0.000000 -0.000000 -16.591035 -24.224184 -33.300912 -2.307937 0.364982 27.006831 
1.371010 -11.737167 104.767264 176.291451 -17.742658 -163.674344 0.000000 -0.000000 0.000000 -0.474267 -0.299247 4.561118 -2.714424 -1.763888 7.544660 0.000000 0.000000 0.000000 -2.723916 -1.121936 8.889462 5.557675 -7.443360 1.737508 -3.394752 -1.645072 7.974434 -6.989339 -5.707347 4.380437 -33.868150 -12.790798 21.347804 -0.007984 -56.517094 0.165460 -3.339543 -1.387372 8.170823 4.312335 13.520608 4.292262 55.733984 14.623896 37.308937 0.306909 70.123574 0.289712 0.000000 -0.000000 -0.000000 2.396055 18.104146 -44.941487 2.156413 4.389269 44.873015 0.000000 0.000000 -0.000000 -15.496791 -24.110720 -34.793828 -2.661497 -0.413517 29.356712 
2.602622 -12.067816 105.018082 175.952921 -19.755227 -163.493898 0.000000 -0.000000 0.000000 -0.582091 0.134993 4.502144 -2.985972 -0.932052 7.504639 0.000000 0.000000 0.000000 -3.000963 -0.420374 8.965625 5.530654 -7.749722 1.771496 -3.634478 -1.051458 8.016685 -6.330729 -6.367396 3.868765 -32.828946 -7.436306 14.731332 -0.042966 -54.103354 0.191505 -3.628082 -0.685508 8.166668 4.243231 16.906264 5.056401 49.296532 18.028549 35.628557 0.375414 75.257172 0.338131 0.000000 -0.000000 -0.000000 2.555570 18.427806 -46.909242 2.068023 4.266293 46.366363 0.000000 0.000000 -0.000000 -14.624924 -24.403311 -36.385309 -2.159627 -0.661902 31.860669 
3.654450 -12.381596 105.221018 175.731713 -21.393092 -163.256639 0.000000 -0.000000 0.000000 -0.672253 0.486372 4.447050 -3.178942 -0.200196 7.351762 0.000000 0.000000 0.000000 -3.183620 0.188972 8.899547 5.387683 -7.935380 1.727186 -3.770205 -0.528548 7.918127 -6.101642 -7.144305 3.438142 -32.993801 -3.627637 9.021418 -0.072984 -51.945747 0.194484 -3.853217 -0.043007 7.979604 4.247338 20.057277 5.803851 43.068019 21.698898 32.830209 0.460101 79.405184 0.407428 0.000000 -0.000000 -0.000000 2.852743 18.711500 -48.560345 2.040392 4.185563 47.476405 0.000000 0.000000 -0.000000 -13.874842 -24.781918 -37.620928 -1.375220 -0.519802 33.886432 
4.547717 -12.665802 105.383099 175.678122 -22.467706 -163.043517 0.000000 -0.000000 0.000000 -0.753000 0.751305 4.367206 -3.326503 0.385611 7.174066 0.000000 0.000000 0.000000 -3.292952 0.734295 8.700820 5.233231 -8.029801 1.631269 -3.856547 -0.091479 7.759150 -6.239829 -7.981090 3.138498 -33.442185 -0.668119 4.564202 -0.104094 -50.954077 0.224787 -4.010374 0.482995 7.697381 4.533353 22.364651 6.641382 38.908326 25.427092 30.064186 0.556016 82.869429 0.492388 0.000000 -0.000000 -0.000000 3.293293 18.926129 -49.821950 2.067406 4.153015 48.238864 0.000000 0.000000 -0.000000 -13.102345 -25.223692 -38.282931 -0.810629 -0.535012 34.977107 
5.304483 -12.927494 105.506947 175.854913 -22.668996 -162.874532 0.000000 -0.000000 0.000000 -0.849638 0.948932 4.280321 -3.420001 0.828212 6.947486 0.000000 0.000000 0.000000 -3.350703 1.192635 8.443991 5.104461 -8.102195 1.464645 -3.898127 0.271407 7.562665 -6.572105 -8.876174 3.198606 -34.021769 1.878014 1.400457 -0.142187 -52.145426 0.260519 -4.113251 0.883843 7.395710 4.926833 24.302355 7.610901 36.644185 28.701944 27.459828 0.786487 85.219040 0.724685 0.000000 -0.000000 -0.000000 3.796438 19.061264 -50.673472 2.142654 4.159057 48.744750 0.000000 0.000000 -0.000000 -12.562250 -25.477034 -38.581358 -0.411402 -0.422300 35.987712 
5.936960 -13.181672 105.585748 176.222202 -22.505832 -162.711850 0.000000 -0.000000 0.000000 -0.967546 1.110245 4.238676 -3.459982 1.151735 6.721402 0.000000 0.000000 0.000000 -3.354477 1.537667 8.218244 4.972251 -8.183085 1.243468 -3.894656 0.582749 7.361795 -6.983824 -9.722047 3.328195 -34.902117 3.688592 -0.272678 -0.185998 -55.290664 0.308972 -4.156467 1.175192 7.144836 5.245704 26.130315 8.520290 35.489678 31.208938 25.265319 0.950112 86.118402 0.901049 0.000000 -0.000000 -0.000000 4.317143 19.087896 -51.265509 2.229049 4.190590 49.106070 0.000000 0.000000 -0.000000 -12.072581 -25.656425 -38.608194 -0.046968 -0.253240 36.885256 
6.456189 -13.419162 105.611484 176.716087 -22.295883 -162.674627 0.000000 -0.000000 0.000000 -1.064775 1.246187 4.243361 -3.426715 1.380547 6.566545 0.000000 0.000000 0.000000 -3.296148 1.778945 8.063941 4.860704 -8.299234 0.994277 -3.839314 0.793146 7.239870 -7.405243 -10.169137 3.410790 -35.981716 4.819007 -1.142800 -0.255976 -60.135667 0.382128 -4.120568 1.365386 6.979147 5.315746 27.961120 9.427234 35.031583 32.967879 23.388924 0.929319 86.279107 0.884454 0.000000 -0.000000 -0.000000 4.875659 18.948980 -51.630961 2.314874 4.239780 49.309562 0.000000 0.000000 -0.000000 -11.598396 -25.735855 -38.493378 0.233066 -0.156864 37.685025 
6.868225 -13.629120 105.577941 177.332876 -21.953127 -162.707682 0.000000 -0.000000 0.000000 -1.150894 1.354066 4.279561 -3.324216 1.521600 6.523501 0.000000 0.000000 0.000000 -3.175521 1.913671 8.019328 4.740203 -8.447246 0.738983 -3.725197 0.913803 7.237055 -7.510047 -10.352966 3.437452 -36.866061 5.562885 -1.694784 -0.298159 -64.968312 0.418826 -4.006521 1.449577 6.931326 5.176179 29.924757 10.279849 34.898899 34.047952 21.516531 0.925035 86.251945 0.891378 0.000000 -0.000000 -0.000000 5.462037 18.730021 -51.856103 2.395032 4.276519 49.396908 0.000000 0.000000 -0.000000 -11.137395 -25.767455 -38.307070 0.449017 -0.076896 38.445006 
7.189759 -13.801250 105.489215 178.054918 -21.619924 -162.737779 0.000000 -0.000000 0.000000 -1.205553 1.433733 4.347172 -3.171603 1.560849 6.595298 0.000000 0.000000 0.000000 -3.006130 1.925185 8.094004 4.553094 -8.595063 0.525950 -3.555947 0.922272 7.366596 -7.621172 -10.542035 3.485159 -37.346156 5.781827 -2.044045 -0.276181 -69.041625 0.382284 -3.833727 1.431264 7.035368 4.880735 32.062969 11.063432 34.608430 34.475820 19.361609 0.976675 86.326446 0.961592 0.000000 -0.000000 -0.000000 6.023642 18.577479 -52.052958 2.465607 4.281163 49.399604 0.000000 0.000000 -0.000000 -10.629089 -25.722025 -38.099402 0.590893 -0.003319 39.115875 
7.418523 -13.931919 105.344071 178.812705 -21.463875 -162.705621 0.000000 -0.000000 0.000000 -1.238478 1.435967 4.435552 -3.008397 1.460606 6.749140 0.000000 0.000000 0.000000 -2.826819 1.782083 8.264209 4.313144 -8.667455 0.446778 -3.370057 0.797411 7.609851 -7.762846 -10.738943 3.562003 -37.162819 5.393462 -2.238368 -0.236914 -72.561230 0.328534 -3.633764 1.273248 7.220755 4.506572 34.094575 11.758083 33.972851 34.263769 17.016211 1.135193 86.528471 1.133736 0.000000 -0.000000 0.000000 6.577489 18.562627 -52.196041 2.586101 4.272963 49.335996 0.000000 0.000000 -0.000000 -10.024398 -25.568555 -37.919257 0.647056 0.043100 39.684479 
7.557831 -14.015991 105.141001 179.547579 -21.588104 -162.661527 0.000000 -0.000000 0.000000 -1.258658 1.353207 4.526450 -2.889615 1.216803 6.911151 0.000000 0.000000 0.000000 -2.692541 1.483431 8.439566 4.093315 -8.657764 0.438555 -3.240864 0.621100 7.833406 -8.001182 -10.918777 3.680609 -36.159849 4.338179 -2.522952 -0.186284 -75.478943 0.268349 -3.470758 0.988758 7.419483 3.725425 35.569027 12.263520 33.083495 33.648744 14.559955 1.436191 86.863429 1.442839 0.000000 -0.000000 0.000000 7.097208 18.588506 -52.307928 2.776822 4.286184 49.231984 0.000000 -0.000000 0.000000 -9.360080 -25.297280 -37.731169 0.660928 0.063807 40.111711 
